<mxfile host="app.diagrams.net" modified="2024-06-06T06:19:48.143Z" agent="Mozilla/5.0 (Windows NT 10.0; Win64; x64) AppleWebKit/537.36 (KHTML, like Gecko) Chrome/125.0.0.0 Safari/537.36 Edg/125.0.0.0" etag="ld-MuUiFSpuwC2yonZv5" version="24.4.14" type="device">
  <diagram id="C5RBs43oDa-KdzZeNtuy" name="Page-1">
    <mxGraphModel dx="1413" dy="1907" grid="1" gridSize="10" guides="1" tooltips="1" connect="1" arrows="1" fold="1" page="1" pageScale="1" pageWidth="827" pageHeight="1169" math="0" shadow="0">
      <root>
        <mxCell id="WIyWlLk6GJQsqaUBKTNV-0" />
        <mxCell id="WIyWlLk6GJQsqaUBKTNV-1" parent="WIyWlLk6GJQsqaUBKTNV-0" />
        <mxCell id="1opDVHYaDR9d3nI2w0RJ-61" style="edgeStyle=orthogonalEdgeStyle;rounded=0;orthogonalLoop=1;jettySize=auto;html=1;exitX=0.5;exitY=1;exitDx=0;exitDy=0;entryX=0.5;entryY=0;entryDx=0;entryDy=0;" parent="WIyWlLk6GJQsqaUBKTNV-1" source="1opDVHYaDR9d3nI2w0RJ-0" target="1opDVHYaDR9d3nI2w0RJ-59" edge="1">
          <mxGeometry relative="1" as="geometry" />
        </mxCell>
        <mxCell id="1opDVHYaDR9d3nI2w0RJ-0" value="User starts app" style="rounded=1;whiteSpace=wrap;html=1;" parent="WIyWlLk6GJQsqaUBKTNV-1" vertex="1">
          <mxGeometry x="360" y="-1110" width="120" height="60" as="geometry" />
        </mxCell>
        <mxCell id="_ZDkP3VnDMZU6Xh92-oK-20" style="edgeStyle=orthogonalEdgeStyle;rounded=0;orthogonalLoop=1;jettySize=auto;html=1;exitX=0.5;exitY=1;exitDx=0;exitDy=0;entryX=0.5;entryY=0;entryDx=0;entryDy=0;" edge="1" parent="WIyWlLk6GJQsqaUBKTNV-1" source="1opDVHYaDR9d3nI2w0RJ-59" target="_ZDkP3VnDMZU6Xh92-oK-19">
          <mxGeometry relative="1" as="geometry" />
        </mxCell>
        <mxCell id="1opDVHYaDR9d3nI2w0RJ-59" value="User successfully logged in" style="rounded=1;whiteSpace=wrap;html=1;" parent="WIyWlLk6GJQsqaUBKTNV-1" vertex="1">
          <mxGeometry x="360" y="-990" width="120" height="60" as="geometry" />
        </mxCell>
        <mxCell id="_ZDkP3VnDMZU6Xh92-oK-3" style="edgeStyle=orthogonalEdgeStyle;rounded=0;orthogonalLoop=1;jettySize=auto;html=1;exitX=0.5;exitY=1;exitDx=0;exitDy=0;entryX=0.5;entryY=0;entryDx=0;entryDy=0;" edge="1" parent="WIyWlLk6GJQsqaUBKTNV-1" source="_ZDkP3VnDMZU6Xh92-oK-0" target="_ZDkP3VnDMZU6Xh92-oK-2">
          <mxGeometry relative="1" as="geometry" />
        </mxCell>
        <mxCell id="_ZDkP3VnDMZU6Xh92-oK-0" value="User want to add another user to his friends" style="rounded=1;whiteSpace=wrap;html=1;" vertex="1" parent="WIyWlLk6GJQsqaUBKTNV-1">
          <mxGeometry x="360" y="-750" width="120" height="60" as="geometry" />
        </mxCell>
        <mxCell id="_ZDkP3VnDMZU6Xh92-oK-5" style="edgeStyle=orthogonalEdgeStyle;rounded=0;orthogonalLoop=1;jettySize=auto;html=1;exitX=0.5;exitY=1;exitDx=0;exitDy=0;entryX=0.5;entryY=0;entryDx=0;entryDy=0;" edge="1" parent="WIyWlLk6GJQsqaUBKTNV-1" source="_ZDkP3VnDMZU6Xh92-oK-2" target="_ZDkP3VnDMZU6Xh92-oK-4">
          <mxGeometry relative="1" as="geometry" />
        </mxCell>
        <mxCell id="_ZDkP3VnDMZU6Xh92-oK-2" value="User selects other user from drop down list" style="rounded=1;whiteSpace=wrap;html=1;" vertex="1" parent="WIyWlLk6GJQsqaUBKTNV-1">
          <mxGeometry x="360" y="-630" width="120" height="60" as="geometry" />
        </mxCell>
        <mxCell id="_ZDkP3VnDMZU6Xh92-oK-7" style="edgeStyle=orthogonalEdgeStyle;rounded=0;orthogonalLoop=1;jettySize=auto;html=1;exitX=0.5;exitY=1;exitDx=0;exitDy=0;entryX=0.5;entryY=0;entryDx=0;entryDy=0;" edge="1" parent="WIyWlLk6GJQsqaUBKTNV-1" source="_ZDkP3VnDMZU6Xh92-oK-4" target="_ZDkP3VnDMZU6Xh92-oK-6">
          <mxGeometry relative="1" as="geometry" />
        </mxCell>
        <mxCell id="_ZDkP3VnDMZU6Xh92-oK-4" value="User presses send friend request button" style="rounded=1;whiteSpace=wrap;html=1;" vertex="1" parent="WIyWlLk6GJQsqaUBKTNV-1">
          <mxGeometry x="360" y="-510" width="120" height="60" as="geometry" />
        </mxCell>
        <mxCell id="_ZDkP3VnDMZU6Xh92-oK-9" style="edgeStyle=orthogonalEdgeStyle;rounded=0;orthogonalLoop=1;jettySize=auto;html=1;exitX=0.5;exitY=1;exitDx=0;exitDy=0;entryX=0.5;entryY=0;entryDx=0;entryDy=0;" edge="1" parent="WIyWlLk6GJQsqaUBKTNV-1" source="_ZDkP3VnDMZU6Xh92-oK-6" target="_ZDkP3VnDMZU6Xh92-oK-8">
          <mxGeometry relative="1" as="geometry" />
        </mxCell>
        <mxCell id="_ZDkP3VnDMZU6Xh92-oK-6" value="The system creates a friend request of the current user to the selected user" style="rounded=1;whiteSpace=wrap;html=1;" vertex="1" parent="WIyWlLk6GJQsqaUBKTNV-1">
          <mxGeometry x="360" y="-390" width="120" height="60" as="geometry" />
        </mxCell>
        <mxCell id="_ZDkP3VnDMZU6Xh92-oK-8" value="The view displays the send friend request" style="rounded=1;whiteSpace=wrap;html=1;" vertex="1" parent="WIyWlLk6GJQsqaUBKTNV-1">
          <mxGeometry x="360" y="-270" width="120" height="60" as="geometry" />
        </mxCell>
        <mxCell id="_ZDkP3VnDMZU6Xh92-oK-10" value="Comment: If another user is already friends with current user,&lt;div&gt;&amp;nbsp;he does not show up in the drop down list&lt;/div&gt;" style="text;html=1;align=center;verticalAlign=middle;resizable=0;points=[];autosize=1;strokeColor=none;fillColor=none;" vertex="1" parent="WIyWlLk6GJQsqaUBKTNV-1">
          <mxGeometry x="10" y="-680" width="350" height="40" as="geometry" />
        </mxCell>
        <mxCell id="_ZDkP3VnDMZU6Xh92-oK-11" value="Current user:" style="text;html=1;align=center;verticalAlign=middle;resizable=0;points=[];autosize=1;strokeColor=none;fillColor=none;" vertex="1" parent="WIyWlLk6GJQsqaUBKTNV-1">
          <mxGeometry x="360" y="-1152" width="90" height="30" as="geometry" />
        </mxCell>
        <mxCell id="_ZDkP3VnDMZU6Xh92-oK-12" value="Other user, after the current user send a friend request:" style="text;html=1;align=center;verticalAlign=middle;whiteSpace=wrap;rounded=0;" vertex="1" parent="WIyWlLk6GJQsqaUBKTNV-1">
          <mxGeometry x="760" y="-1140" width="170" height="30" as="geometry" />
        </mxCell>
        <mxCell id="_ZDkP3VnDMZU6Xh92-oK-14" style="edgeStyle=orthogonalEdgeStyle;rounded=0;orthogonalLoop=1;jettySize=auto;html=1;exitX=0.5;exitY=1;exitDx=0;exitDy=0;entryX=0.5;entryY=0;entryDx=0;entryDy=0;" edge="1" parent="WIyWlLk6GJQsqaUBKTNV-1" source="_ZDkP3VnDMZU6Xh92-oK-15" target="_ZDkP3VnDMZU6Xh92-oK-16">
          <mxGeometry relative="1" as="geometry" />
        </mxCell>
        <mxCell id="_ZDkP3VnDMZU6Xh92-oK-15" value="User starts app" style="rounded=1;whiteSpace=wrap;html=1;" vertex="1" parent="WIyWlLk6GJQsqaUBKTNV-1">
          <mxGeometry x="760" y="-1100" width="120" height="60" as="geometry" />
        </mxCell>
        <mxCell id="_ZDkP3VnDMZU6Xh92-oK-18" style="edgeStyle=orthogonalEdgeStyle;rounded=0;orthogonalLoop=1;jettySize=auto;html=1;exitX=0.5;exitY=1;exitDx=0;exitDy=0;entryX=0.5;entryY=0;entryDx=0;entryDy=0;" edge="1" parent="WIyWlLk6GJQsqaUBKTNV-1" source="_ZDkP3VnDMZU6Xh92-oK-16" target="_ZDkP3VnDMZU6Xh92-oK-17">
          <mxGeometry relative="1" as="geometry" />
        </mxCell>
        <mxCell id="_ZDkP3VnDMZU6Xh92-oK-16" value="User successfully logged in" style="rounded=1;whiteSpace=wrap;html=1;" vertex="1" parent="WIyWlLk6GJQsqaUBKTNV-1">
          <mxGeometry x="760" y="-980" width="120" height="60" as="geometry" />
        </mxCell>
        <mxCell id="_ZDkP3VnDMZU6Xh92-oK-23" style="edgeStyle=orthogonalEdgeStyle;rounded=0;orthogonalLoop=1;jettySize=auto;html=1;exitX=0.5;exitY=1;exitDx=0;exitDy=0;entryX=0.5;entryY=0;entryDx=0;entryDy=0;" edge="1" parent="WIyWlLk6GJQsqaUBKTNV-1" source="_ZDkP3VnDMZU6Xh92-oK-17" target="_ZDkP3VnDMZU6Xh92-oK-22">
          <mxGeometry relative="1" as="geometry" />
        </mxCell>
        <mxCell id="_ZDkP3VnDMZU6Xh92-oK-17" value="The system loads friend, friend requests and send friend requests" style="rounded=1;whiteSpace=wrap;html=1;" vertex="1" parent="WIyWlLk6GJQsqaUBKTNV-1">
          <mxGeometry x="760" y="-860" width="120" height="60" as="geometry" />
        </mxCell>
        <mxCell id="_ZDkP3VnDMZU6Xh92-oK-21" style="edgeStyle=orthogonalEdgeStyle;rounded=0;orthogonalLoop=1;jettySize=auto;html=1;exitX=0.5;exitY=1;exitDx=0;exitDy=0;entryX=0.5;entryY=0;entryDx=0;entryDy=0;" edge="1" parent="WIyWlLk6GJQsqaUBKTNV-1" source="_ZDkP3VnDMZU6Xh92-oK-19" target="_ZDkP3VnDMZU6Xh92-oK-0">
          <mxGeometry relative="1" as="geometry" />
        </mxCell>
        <mxCell id="_ZDkP3VnDMZU6Xh92-oK-19" value="The system loads friend, friend requests and send friend requests" style="rounded=1;whiteSpace=wrap;html=1;" vertex="1" parent="WIyWlLk6GJQsqaUBKTNV-1">
          <mxGeometry x="360" y="-870" width="120" height="60" as="geometry" />
        </mxCell>
        <mxCell id="_ZDkP3VnDMZU6Xh92-oK-27" style="edgeStyle=orthogonalEdgeStyle;rounded=0;orthogonalLoop=1;jettySize=auto;html=1;exitX=0.5;exitY=1;exitDx=0;exitDy=0;entryX=0.5;entryY=0;entryDx=0;entryDy=0;" edge="1" parent="WIyWlLk6GJQsqaUBKTNV-1" source="_ZDkP3VnDMZU6Xh92-oK-22" target="_ZDkP3VnDMZU6Xh92-oK-26">
          <mxGeometry relative="1" as="geometry" />
        </mxCell>
        <mxCell id="_ZDkP3VnDMZU6Xh92-oK-22" value="User sees new friend request" style="rounded=1;whiteSpace=wrap;html=1;" vertex="1" parent="WIyWlLk6GJQsqaUBKTNV-1">
          <mxGeometry x="760" y="-740" width="120" height="60" as="geometry" />
        </mxCell>
        <mxCell id="_ZDkP3VnDMZU6Xh92-oK-29" value="Yes" style="edgeStyle=orthogonalEdgeStyle;rounded=0;orthogonalLoop=1;jettySize=auto;html=1;exitX=0.5;exitY=1;exitDx=0;exitDy=0;entryX=0.5;entryY=0;entryDx=0;entryDy=0;" edge="1" parent="WIyWlLk6GJQsqaUBKTNV-1" source="_ZDkP3VnDMZU6Xh92-oK-26" target="_ZDkP3VnDMZU6Xh92-oK-28">
          <mxGeometry relative="1" as="geometry" />
        </mxCell>
        <mxCell id="_ZDkP3VnDMZU6Xh92-oK-31" style="edgeStyle=orthogonalEdgeStyle;rounded=0;orthogonalLoop=1;jettySize=auto;html=1;exitX=1;exitY=0.5;exitDx=0;exitDy=0;entryX=0;entryY=0.5;entryDx=0;entryDy=0;" edge="1" parent="WIyWlLk6GJQsqaUBKTNV-1" source="_ZDkP3VnDMZU6Xh92-oK-26" target="_ZDkP3VnDMZU6Xh92-oK-30">
          <mxGeometry relative="1" as="geometry" />
        </mxCell>
        <mxCell id="_ZDkP3VnDMZU6Xh92-oK-26" value="User want to accept the request" style="rhombus;whiteSpace=wrap;html=1;" vertex="1" parent="WIyWlLk6GJQsqaUBKTNV-1">
          <mxGeometry x="780" y="-630" width="80" height="80" as="geometry" />
        </mxCell>
        <mxCell id="_ZDkP3VnDMZU6Xh92-oK-33" style="edgeStyle=orthogonalEdgeStyle;rounded=0;orthogonalLoop=1;jettySize=auto;html=1;exitX=0.5;exitY=1;exitDx=0;exitDy=0;entryX=0.5;entryY=0;entryDx=0;entryDy=0;" edge="1" parent="WIyWlLk6GJQsqaUBKTNV-1" source="_ZDkP3VnDMZU6Xh92-oK-28" target="_ZDkP3VnDMZU6Xh92-oK-32">
          <mxGeometry relative="1" as="geometry" />
        </mxCell>
        <mxCell id="_ZDkP3VnDMZU6Xh92-oK-28" value="Presses the accept button" style="rounded=1;whiteSpace=wrap;html=1;" vertex="1" parent="WIyWlLk6GJQsqaUBKTNV-1">
          <mxGeometry x="760" y="-500" width="120" height="60" as="geometry" />
        </mxCell>
        <mxCell id="_ZDkP3VnDMZU6Xh92-oK-37" style="edgeStyle=orthogonalEdgeStyle;rounded=0;orthogonalLoop=1;jettySize=auto;html=1;exitX=0.5;exitY=1;exitDx=0;exitDy=0;entryX=0.5;entryY=0;entryDx=0;entryDy=0;" edge="1" parent="WIyWlLk6GJQsqaUBKTNV-1" source="_ZDkP3VnDMZU6Xh92-oK-30" target="_ZDkP3VnDMZU6Xh92-oK-40">
          <mxGeometry relative="1" as="geometry">
            <mxPoint x="1190" y="-520" as="targetPoint" />
          </mxGeometry>
        </mxCell>
        <mxCell id="_ZDkP3VnDMZU6Xh92-oK-30" value="Presses the decline button" style="rounded=1;whiteSpace=wrap;html=1;" vertex="1" parent="WIyWlLk6GJQsqaUBKTNV-1">
          <mxGeometry x="1160" y="-620" width="120" height="60" as="geometry" />
        </mxCell>
        <mxCell id="_ZDkP3VnDMZU6Xh92-oK-35" style="edgeStyle=orthogonalEdgeStyle;rounded=0;orthogonalLoop=1;jettySize=auto;html=1;exitX=0.5;exitY=1;exitDx=0;exitDy=0;entryX=0.5;entryY=0;entryDx=0;entryDy=0;" edge="1" parent="WIyWlLk6GJQsqaUBKTNV-1" source="_ZDkP3VnDMZU6Xh92-oK-32" target="_ZDkP3VnDMZU6Xh92-oK-34">
          <mxGeometry relative="1" as="geometry" />
        </mxCell>
        <mxCell id="_ZDkP3VnDMZU6Xh92-oK-32" value="System updates the request as accepted" style="rounded=1;whiteSpace=wrap;html=1;" vertex="1" parent="WIyWlLk6GJQsqaUBKTNV-1">
          <mxGeometry x="760" y="-380" width="120" height="60" as="geometry" />
        </mxCell>
        <mxCell id="_ZDkP3VnDMZU6Xh92-oK-34" value="User is now displayed as a friend" style="rounded=1;whiteSpace=wrap;html=1;" vertex="1" parent="WIyWlLk6GJQsqaUBKTNV-1">
          <mxGeometry x="760" y="-260" width="120" height="60" as="geometry" />
        </mxCell>
        <mxCell id="_ZDkP3VnDMZU6Xh92-oK-38" value="Comment: The system of the current user&amp;nbsp;&lt;div&gt;will update and remove the request from view&lt;/div&gt;" style="text;html=1;align=center;verticalAlign=middle;resizable=0;points=[];autosize=1;strokeColor=none;fillColor=none;" vertex="1" parent="WIyWlLk6GJQsqaUBKTNV-1">
          <mxGeometry x="1280" y="-430" width="260" height="40" as="geometry" />
        </mxCell>
        <mxCell id="_ZDkP3VnDMZU6Xh92-oK-39" value="Comment: The system of the current user&amp;nbsp;&lt;div&gt;will update and remove the request from view.&amp;nbsp;&lt;/div&gt;&lt;div&gt;The other user is now displayed as a friend&lt;/div&gt;" style="text;html=1;align=center;verticalAlign=middle;resizable=0;points=[];autosize=1;strokeColor=none;fillColor=none;" vertex="1" parent="WIyWlLk6GJQsqaUBKTNV-1">
          <mxGeometry x="875" y="-320" width="270" height="60" as="geometry" />
        </mxCell>
        <mxCell id="_ZDkP3VnDMZU6Xh92-oK-42" style="edgeStyle=orthogonalEdgeStyle;rounded=0;orthogonalLoop=1;jettySize=auto;html=1;exitX=0.5;exitY=1;exitDx=0;exitDy=0;entryX=0.5;entryY=0;entryDx=0;entryDy=0;" edge="1" parent="WIyWlLk6GJQsqaUBKTNV-1" source="_ZDkP3VnDMZU6Xh92-oK-40" target="_ZDkP3VnDMZU6Xh92-oK-41">
          <mxGeometry relative="1" as="geometry" />
        </mxCell>
        <mxCell id="_ZDkP3VnDMZU6Xh92-oK-40" value="System deletes the friend request" style="rounded=1;whiteSpace=wrap;html=1;" vertex="1" parent="WIyWlLk6GJQsqaUBKTNV-1">
          <mxGeometry x="1160" y="-500" width="120" height="60" as="geometry" />
        </mxCell>
        <mxCell id="_ZDkP3VnDMZU6Xh92-oK-41" value="Friend request is now no longer displayed" style="rounded=1;whiteSpace=wrap;html=1;" vertex="1" parent="WIyWlLk6GJQsqaUBKTNV-1">
          <mxGeometry x="1160" y="-380" width="120" height="60" as="geometry" />
        </mxCell>
      </root>
    </mxGraphModel>
  </diagram>
</mxfile>
